# xmcd
#
# Track frame offsets: 
#        150
#        13700
#        27182
#        41092
#        53665
#        67172
#        81225
#        94120
#        107917
#        122317
#        136832
#        151115
#        165092
#        177960
#        190342
#        201887
#        213925
#        226010
#        238645
#        251930
#        264030
#        275982
#        288202
#
# Disc length: 3995 seconds
#
# Revision: 1
# Processed by: cddbd v1.5.2PL0 Copyright (c) Steve Scherf et al.
# Submitted via: ExactAudioCopyFreeDBPlugin 1.0
#
DISCID=370f9917
DTITLE=Whistlin' Alex Moore - Complete Recorded Works (1929-1951)
DYEAR=1993
DGENRE=Blues
TTITLE0=They May Not Be My Toes
TTITLE1=West Texas Woman
TTITLE2=Heart Wrecked Blues
TTITLE3=Ice Pick Blues
TTITLE4=Rugger Blues
TTITLE5=Riverside Blues
TTITLE6=Frankie and Johnny (The Shooting Scene) Part 1
TTITLE7=Frankie and Johnny (The Courtroom Scene) Part 2
TTITLE8=It Wouldn't Be So Hard
TTITLE9=Blue Bloomer Blues
TTITLE10=Back to Georgia Blues
TTITLE11=Be Mean to Your Baby
TTITLE12=Sundown Blues
TTITLE13=The Katy Blues
TTITLE14=Blue Bloomer Blues
TTITLE15=Come Back Baby
TTITLE16=Bull Con Blues
TTITLE17=Hard-Hearted Woman
TTITLE18=I Want My Mary
TTITLE19=Miss No Good Weed (No. 1)
TTITLE20=If I Lose You Woman
TTITLE21=Neglected Woman
TTITLE22=Lillie Mae Boogie
EXTD=william hale
EXTT0=
EXTT1=
EXTT2=
EXTT3=
EXTT4=
EXTT5=
EXTT6=
EXTT7=
EXTT8=
EXTT9=
EXTT10=
EXTT11=
EXTT12=
EXTT13=
EXTT14=
EXTT15=
EXTT16=
EXTT17=
EXTT18=
EXTT19=
EXTT20=
EXTT21=
EXTT22=
PLAYORDER=
